<svg width="512" height="512" xmlns="http://www.w3.org/2000/svg">

 <g>
  <title>Layer 1</title>
  <rect id="svg_19" height="357" width="483" y="78" x="15.5" opacity="undefined" stroke="#000" fill="#fff"/>
  <g id="svg_1">
   <g id="svg_2">
    <path id="svg_3" d="m467,61l-422,0c-24.782,0 -45,20.196 -45,45l0,300c0,24.72 20.128,45 45,45l422,0c24.72,0 45,-20.128 45,-45l0,-300c0,-24.72 -20.128,-45 -45,-45zm-6.214,30l-203.832,203.833l-205.595,-203.833l409.427,0zm-430.786,308.788l0,-287.719l144.479,143.24l-144.479,144.479zm21.213,21.212l144.57,-144.57l50.657,50.222c5.864,5.814 15.327,5.795 21.167,-0.046l49.393,-49.393l143.787,143.787l-409.574,0zm430.787,-21.213l-143.787,-143.787l143.787,-143.788l0,287.575z"/>
   </g>
  </g>
  <g id="svg_4"/>
  <g id="svg_5"/>
  <g id="svg_6"/>
  <g id="svg_7"/>
  <g id="svg_8"/>
  <g id="svg_9"/>
  <g id="svg_10"/>
  <g id="svg_11"/>
  <g id="svg_12"/>
  <g id="svg_13"/>
  <g id="svg_14"/>
  <g id="svg_15"/>
  <g id="svg_16"/>
  <g id="svg_17"/>
  <g id="svg_18"/>
 </g>
</svg>